<?xml version="1.0" standalone="no"?>
<!DOCTYPE svg PUBLIC "-//W3C//DTD SVG 20010904//EN"
 "http://www.w3.org/TR/2001/REC-SVG-20010904/DTD/svg10.dtd">
<svg version="1.0" xmlns="http://www.w3.org/2000/svg"
 width="500.000000pt" height="500.000000pt" viewBox="0 0 500.000000 500.000000"
 preserveAspectRatio="xMidYMid meet">

<g transform="translate(0.000000,500.000000) scale(0.100000,-0.100000)"
fill="#000000" stroke="none">
<path d="M3465 4580 c3 -5 8 -10 11 -10 2 0 4 5 4 10 0 6 -5 10 -11 10 -5 0
-7 -4 -4 -10z"/>
<path d="M3250 4457 c0 -3 8 -23 18 -44 16 -37 52 -83 52 -67 0 3 6 2 13 -4 7
-6 24 -8 37 -5 17 4 21 3 16 -6 -6 -8 -2 -11 10 -9 11 2 18 -2 17 -8 -1 -7 6
-10 17 -7 11 3 20 0 20 -6 0 -6 6 -11 14 -11 8 0 21 -8 28 -18 7 -10 24 -19
38 -19 14 -1 26 -7 28 -13 2 -5 8 -10 13 -10 21 0 149 -94 241 -177 32 -29 64
-53 71 -53 17 0 139 -120 208 -206 61 -75 143 -194 180 -262 50 -90 47 -88 45
-38 -1 35 -5 46 -17 46 -9 0 -33 28 -54 63 -116 190 -295 400 -440 515 -153
121 -171 135 -207 148 -18 6 -31 31 -23 43 2 5 -7 14 -20 21 -14 7 -25 19 -25
27 0 7 -11 13 -25 13 -14 0 -62 18 -107 40 -74 36 -148 60 -148 47z"/>
<path d="M3827 4364 c-8 -8 1 -24 14 -24 5 0 9 7 9 15 0 15 -12 20 -23 9z"/>
<path d="M3668 4277 c-14 -10 -14 -12 7 -29 28 -22 35 -23 35 -3 0 8 -4 15 -9
15 -5 0 -11 6 -13 14 -2 10 -7 11 -20 3z"/>
<path d="M3680 4065 c0 -29 34 -36 44 -9 8 21 -1 34 -25 34 -14 0 -19 -7 -19
-25z"/>
<path d="M3867 3923 c-12 -12 -7 -33 8 -33 17 0 19 9 7 28 -5 7 -11 9 -15 5z"/>
<path d="M3990 3854 c0 -8 5 -12 10 -9 6 4 8 11 5 16 -9 14 -15 11 -15 -7z"/>
<path d="M4376 3752 c-3 -6 -1 -14 5 -17 15 -10 25 3 12 16 -7 7 -13 7 -17 1z"/>
<path d="M4280 3699 c0 -5 5 -7 10 -4 6 3 10 8 10 11 0 2 -4 4 -10 4 -5 0 -10
-5 -10 -11z"/>
<path d="M3947 3693 c-13 -13 -7 -21 13 -16 11 3 20 9 20 14 0 10 -24 12 -33
2z"/>
<path d="M4120 3633 c0 -5 4 -15 10 -23 11 -18 25 -7 17 15 -6 15 -27 21 -27
8z"/>
<path d="M4650 3580 c0 -5 5 -10 11 -10 5 0 7 5 4 10 -3 6 -8 10 -11 10 -2 0
-4 -4 -4 -10z"/>
<path d="M4235 3450 c-3 -5 -1 -10 4 -10 6 0 11 5 11 10 0 6 -2 10 -4 10 -3 0
-8 -4 -11 -10z"/>
<path d="M4373 3372 c-9 -5 -8 -12 0 -29 15 -28 39 -16 30 15 -6 23 -11 26
-30 14z"/>
<path d="M4560 3355 c0 -9 5 -15 11 -13 6 2 11 8 11 13 0 5 -5 11 -11 13 -6 2
-11 -4 -11 -13z"/>
<path d="M1955 3262 c-107 -77 -230 -285 -310 -520 -18 -52 -35 -90 -38 -86
-3 5 1 56 9 114 24 179 36 333 29 387 -7 57 -36 103 -65 103 -29 0 -80 -67
-125 -165 -47 -100 -70 -179 -80 -271 -11 -102 22 -176 69 -158 22 8 20 18 -6
29 -53 23 -25 243 49 385 75 144 97 161 108 83 7 -56 -7 -207 -56 -588 -26
-209 -40 -398 -30 -408 19 -19 30 5 46 103 9 52 26 129 37 170 11 41 24 89 28
105 74 271 187 515 296 635 48 53 90 76 110 59 23 -19 18 -120 -11 -206 -32
-95 -67 -157 -175 -313 -107 -155 -102 -146 -87 -158 9 -8 29 0 76 33 112 78
183 71 215 -21 19 -57 21 -164 4 -186 -7 -8 -67 -46 -133 -83 -258 -146 -358
-240 -380 -356 -19 -100 74 -166 186 -133 171 51 320 261 374 526 3 17 23 39
57 64 29 20 81 64 116 97 34 33 62 54 63 46 0 -8 1 -30 2 -49 3 -52 29 -46 42
10 22 91 47 115 108 103 19 -4 25 -15 35 -63 14 -64 45 -100 87 -100 27 0 98
50 121 85 23 36 33 31 32 -15 0 -46 24 -90 50 -90 63 0 119 167 77 228 -9 12
-15 34 -13 49 5 44 -24 39 -55 -10 -15 -23 -63 -80 -106 -126 -62 -64 -85 -82
-102 -79 -37 5 -51 43 -44 118 11 126 11 124 -6 128 -12 2 -21 -9 -31 -40 -14
-41 -17 -43 -64 -49 -27 -4 -57 -10 -66 -14 -14 -6 -17 1 -20 42 -2 26 -7 47
-13 46 -5 -1 -16 -27 -24 -57 -11 -48 -22 -64 -80 -119 -86 -81 -138 -120
-149 -113 -5 3 -12 39 -15 80 -6 82 -23 123 -64 156 -25 20 -36 22 -96 17
l-68 -6 56 79 c141 202 200 405 142 491 -30 45 -62 48 -112 11z m900 -693 c-4
-27 -15 -59 -25 -72 -17 -20 -19 -21 -25 -4 -7 15 18 126 32 151 13 20 24 -29
18 -75z m-819 -279 c-8 -54 -74 -203 -114 -262 -86 -125 -218 -205 -294 -179
-60 21 -73 72 -38 140 29 57 63 94 143 153 69 52 102 73 212 133 28 16 59 34
70 41 28 20 28 19 21 -26z"/>
<path d="M4427 3200 c5 -20 15 -25 26 -14 9 9 -4 34 -18 34 -8 0 -11 -8 -8
-20z"/>
<path d="M4304 2965 c-3 -8 -3 -19 1 -25 11 -18 25 -11 25 15 0 27 -17 34 -26
10z"/>
<path d="M2570 2901 c-8 -15 -8 -27 0 -41 19 -35 53 -17 48 26 -4 35 -32 44
-48 15z"/>
<path d="M3342 2743 c-6 -10 -13 -38 -17 -63 -5 -30 -17 -56 -39 -78 -81 -86
-123 -74 -128 37 -4 90 -22 88 -90 -8 -29 -41 -59 -76 -65 -79 -20 -6 -15 35
12 112 13 38 22 73 19 78 -14 22 -37 3 -60 -46 -20 -45 -24 -67 -22 -123 3
-63 5 -68 26 -71 30 -4 55 18 101 88 l35 55 12 -53 c22 -99 86 -110 172 -29
42 40 41 22 -1 -29 -51 -60 -77 -100 -77 -118 0 -29 19 -17 54 37 20 30 44 61
55 71 18 16 20 16 40 -13 47 -65 132 -43 234 61 70 72 60 95 -11 26 -58 -55
-99 -83 -135 -92 -22 -5 -32 -1 -52 20 -14 15 -25 32 -25 39 0 10 123 122 174
158 11 8 16 19 12 26 -9 14 -78 -32 -148 -97 l-48 -45 0 77 c0 74 -10 94 -28
59z"/>
<path d="M648 2069 c11 -28 26 -29 30 -1 3 17 -2 22 -17 22 -16 0 -19 -4 -13
-21z"/>
<path d="M536 1831 c-3 -5 1 -14 9 -21 13 -10 15 -9 15 9 0 21 -14 28 -24 12z"/>
<path d="M3154 1740 c-51 -20 -41 -63 18 -82 23 -7 43 -18 45 -25 6 -18 -37
-27 -63 -12 -30 16 -46 2 -20 -17 43 -31 111 -8 104 36 -2 18 -14 27 -45 38
-26 8 -43 20 -43 29 0 13 9 15 48 10 l47 -7 -24 20 c-25 22 -35 23 -67 10z"/>
<path d="M1757 1733 c-9 -8 -9 -106 -1 -127 10 -26 23 -18 26 17 2 26 7 32 28
34 14 0 31 1 38 2 29 2 -1 21 -34 21 -27 0 -34 4 -34 20 0 17 7 20 40 20 22 0
40 5 40 10 0 11 -93 14 -103 3z"/>
<path d="M2118 1688 c-34 -71 -42 -98 -29 -98 6 0 15 9 21 20 8 14 21 20 45
20 24 0 37 -6 45 -20 15 -28 33 -26 24 3 -16 51 -57 127 -69 127 -7 0 -24 -24
-37 -52z m55 -8 c6 -22 -7 -34 -28 -26 -17 6 -8 46 10 46 7 0 15 -9 18 -20z"/>
<path d="M2452 1668 l3 -73 54 -3 c40 -2 52 0 49 10 -3 7 -21 14 -41 16 l-36
3 -3 56 c-2 35 -8 58 -16 61 -10 3 -12 -13 -10 -70z"/>
<path d="M2790 1665 l0 -75 56 0 c67 0 72 23 6 28 l-42 3 0 60 c0 33 -4 59
-10 59 -6 0 -10 -32 -10 -75z"/>
<path d="M590 1665 c0 -17 5 -25 13 -22 6 2 12 12 12 22 0 10 -6 20 -12 23 -8
2 -13 -6 -13 -23z"/>
<path d="M412 1666 c1 -10 8 -17 13 -17 15 1 12 24 -3 29 -9 3 -13 -2 -10 -12z"/>
<path d="M690 1510 c0 -33 11 -38 30 -15 10 12 10 18 0 30 -19 23 -30 18 -30
-15z"/>
<path d="M335 1430 c3 -5 11 -10 16 -10 6 0 7 5 4 10 -3 6 -11 10 -16 10 -6 0
-7 -4 -4 -10z"/>
<path d="M855 1420 c-9 -15 -1 -23 21 -18 15 3 16 4 1 16 -11 9 -17 10 -22 2z"/>
<path d="M1030 1350 c0 -5 9 -10 20 -10 11 0 20 5 20 10 0 6 -9 10 -20 10 -11
0 -20 -4 -20 -10z"/>
<path d="M615 1280 c-3 -5 1 -10 10 -10 9 0 13 5 10 10 -3 6 -8 10 -10 10 -2
0 -7 -4 -10 -10z"/>
<path d="M881 1273 c18 -50 271 -308 377 -385 82 -60 97 -78 65 -78 -14 0 -14
-2 2 -20 22 -24 35 -26 35 -5 0 21 16 19 57 -6 19 -12 41 -18 51 -14 15 5 14
9 -8 26 -14 10 -51 32 -82 48 -71 36 -103 58 -203 142 -79 66 -200 186 -265
264 -18 21 -31 34 -29 28z"/>
<path d="M1017 1193 c-4 -3 -7 -11 -7 -17 0 -6 5 -5 12 2 6 6 9 14 7 17 -3 3
-9 2 -12 -2z"/>
<path d="M1132 1131 c13 -21 28 -19 28 5 0 8 -9 14 -20 14 -17 0 -19 -3 -8
-19z"/>
<path d="M1307 1004 c-4 -4 -7 -16 -7 -26 0 -14 6 -19 23 -16 14 2 22 10 22
23 0 20 -25 32 -38 19z"/>
<path d="M1182 688 c6 -18 28 -21 28 -4 0 9 -7 16 -16 16 -9 0 -14 -5 -12 -12z"/>
</g>
</svg>
